<?xml version="1.0" encoding="UTF-8"?>
<svg width="512" height="512" version="1.1" viewBox="0 0 512 512" xml:space="preserve" xmlns="http://www.w3.org/2000/svg"><defs><linearGradient id="linearGradient2" x1="130.04" x2="643.18" y1="-46.799" y2="602.33" gradientTransform="matrix(.89565 0 0 .89565 26.937 24.353)" gradientUnits="userSpaceOnUse"><stop stop-color="#f139ef" offset="0"/><stop stop-color="#0f31ff" offset="1"/></linearGradient></defs><g transform="matrix(1.1165 0 0 1.1165 -30.891 -37.538)" stroke-width=".89565"><path d="m118.98 488.1c-25.923-2.6536-46.8-12.642-63.937-30.592-13.225-13.851-21.208-29.136-25.556-48.925l-1.4517-6.6084v-277.55l1.71-7.9039c4.654-21.512 13.544-37.747 28.657-52.334 10.25-9.893 22.44-17.194 36.619-21.931 15.191-5.0751 1.63-4.6854 163.05-4.6854h143.81l6.7361 1.4233c12.723 2.6883 25.245 7.9185 35.249 14.722 7.8071 5.3096 20.545 18.012 25.306 25.237 9.3466 14.181 14.464 28.644 16.089 45.471 0.36891 3.8196 0.60943 58.375 0.61183 138.78 3e-3 110.71-0.14249 133.58-0.88724 139.18-3.1052 23.325-11.991 41.294-28.606 57.85-12.362 12.317-25.115 19.766-41.574 24.282-14.066 3.8594-3.1503 3.5976-154.85 3.7134-76.327 0.0583-139.77 5e-3 -140.98-0.1195zm280.15-105.41c4.7944-2.2481 8.3496-5.6113 10.448-9.8839l1.7495-3.5626v-110.77c0-90.624-0.15312-111.3-0.84187-113.66-1.376-4.7305-4.874-8.7448-9.8177-11.267l-4.3185-2.2028h-278.94l-3.5626 1.7495c-4.1026 2.0147-7.637 5.6411-9.5678 9.8169l-1.3452 2.9092v223.43l1.7296 3.281c0.95128 1.8046 2.5603 4.2271 3.5756 5.3834 2.2572 2.5708 7.2618 5.3715 10.884 6.091 1.4807 0.29412 64.292 0.4931 139.58 0.44216l136.89-0.0926zm-274.87-20.672c-0.73104-0.29537-1.9347-1.3069-2.6748-2.2478-1.2693-1.6137-1.3457-2.4015-1.3457-13.889v-12.178l3.6701-4.1108 10.91-0.20508c12.662-0.23802 14.945 0.20656 16.845 3.281 1.1903 1.926 1.3024 3.0775 1.3002 13.362-2e-3 10.138-0.12701 11.459-1.259 13.316-0.69117 1.1336-1.983 2.3373-2.8708 2.6748-1.9696 0.74885-22.72 0.7462-24.575-3e-3zm51.679 0.013c-0.69231-0.28825-2.1084-1.4218-3.1469-2.5189l-1.8881-1.9948-0.16314-99.105c-0.18018-109.46-0.47-101.65 3.8494-103.7 1.9717-0.93563 9.4535-1.0289 82.507-1.0289 89.081 0 83.209-0.28393 85.046 4.1125 0.76014 1.8193 0.89413 16.913 0.89213 100.5-2e-3 97.545-0.0129 98.377-1.2725 100.44-2.514 4.1235 2.424 3.8998-85.087 3.8558-43.713-0.0219-80.045-0.27574-80.738-0.56398zm55.378-47.096c1.0345-0.52226 10.806-6.8015 21.713-13.954s27.997-18.341 37.976-24.863c9.9788-6.5223 18.617-12.582 19.196-13.465 1.5149-2.312 1.3798-7.1104-0.26218-9.3096-0.72314-0.96856-8.5225-6.319-17.332-11.89s-25.534-16.248-37.167-23.727-22.301-14.186-23.71-14.905c-3.2371-1.6515-7.337-1.6814-9.975-0.0729-4.1648 2.5394-3.9642-0.29678-3.9642 56.04 0 42.478 0.14759 51.327 0.87963 52.743 2.4594 4.756 7.3556 6.0741 12.645 3.404zm133.6 46.735c-3.2134-1.7818-3.6268-3.5731-3.6268-15.714 0-16.648 0.0299-16.678 16.364-16.678 16.55 0 16.534-0.0172 16.244 17.651l-0.19507 11.904-3.4872 3.4871-11.788 0.15263c-9.574 0.12396-12.112-0.0268-13.511-0.80267zm-240.66-59.443c-0.73104-0.29538-1.951-1.3276-2.711-2.2937-1.3318-1.6932-1.3748-2.1979-1.1883-13.954l0.19348-12.198 1.7659-1.5177c1.7338-1.4901 1.9857-1.5177 13.864-1.5177 17.027 0 16.783-0.24295 16.783 16.71v11.108l-4.2798 4.2798-11.549-0.0399c-6.352-0.0219-12.147-0.28156-12.878-0.57693zm241.12 0.0218c-0.69231-0.28335-1.8252-1.1448-2.5175-1.9143-1.1678-1.298-1.2588-2.2851-1.2588-13.657v-12.258l4.1108-3.673 12.106 0.014c16.651 0.0192 16.196-0.42904 16.196 15.964 0 6.5872-0.27495 11.629-0.683 12.525-1.4482 3.1785-3.2752 3.5986-15.463 3.5553-6.1774-0.0219-11.798-0.27173-12.49-0.55509zm-240.56-59.637c-0.76704-0.14847-2.1123-1.1229-2.9895-2.1654-1.5804-1.8781-1.5949-2.0011-1.5949-13.461 0-6.9753 0.27107-12.16 0.683-13.065 1.4382-3.1565 3.3009-3.5952 15.265-3.5952 6.0683 0 11.76 0.27616 12.647 0.61368 0.88776 0.33753 2.1796 1.5412 2.8708 2.6748 1.1352 1.8619 1.2569 3.1777 1.259 13.61l2e-3 11.549-4.2798 4.2797-11.234-0.0857c-6.1789-0.0471-11.862-0.20719-12.629-0.35565zm239.88-0.74531c-3.1678-1.9317-3.5148-3.6592-3.2948-16.403l0.19803-11.468 4.1108-3.6702h23.877l4.1108 3.673v25.382l-4.1108 3.673-11.476-2e-3c-10.117-2e-3 -11.706-0.14229-13.414-1.1843zm-241.12-59.202c-1.1029-0.67249-2.3066-1.7857-2.6748-2.4738-1.0717-2.0025-0.88093-23.645 0.22732-25.788 1.4819-2.8656 3.232-3.2382 15.213-3.2382 16.578 0 16.618 0.039 16.618 16.364 0 16.306-0.0591 16.365-16.49 16.361-9.6708-2e-3 -11.112-0.13904-12.893-1.2251zm241.12 0.0619c-3.1677-1.9662-3.5148-3.6896-3.2948-16.358l0.19803-11.402 3.4872-3.487 24.571-0.38998 4.355 4.355v24.022l-3.6703 4.1108-11.854 0.17612c-10.758 0.15984-12.033 0.0649-13.792-1.027z" fill="url(#linearGradient2)"/></g></svg>
